<svg xmlns="http://www.w3.org/2000/svg" viewBox="0 0 24 24" fill="currentColor">
  <path d="M19.5 9.5c-.43 0-.83.09-1.2.26l-.01-.01-1.39-1.4c.45-.7.73-1.53.73-2.42 0-2.48-2.01-4.5-4.5-4.5S8.63 3.45 8.63 5.93c0 .89.28 1.72.73 2.42l-1.39 1.4-.01.01c-.37-.17-.77-.26-1.2-.26-1.52 0-2.75 1.23-2.75 2.75s1.23 2.75 2.75 2.75c.43 0 .83-.09 1.2-.26l.01.01 1.39 1.4c-.45.7-.73 1.53-.73 2.42 0 2.48 2.01 4.5 4.5 4.5s4.5-2.02 4.5-4.5c0-.89-.28-1.72-.73-2.42l1.39-1.4.01-.01c.37.17.77.26 1.2.26 1.52 0 2.75-1.23 2.75-2.75S21.02 9.5 19.5 9.5zM4.5 13.75c-.69 0-1.25-.56-1.25-1.25s.56-1.25 1.25-1.25 1.25.56 1.25 1.25-.56 1.25-1.25 1.25zm8.63 6.82c-1.66 0-3-1.34-3-3s1.34-3 3-3 3 1.34 3 3-1.34 3-3 3zm0-12.14c-1.66 0-3-1.34-3-3s1.34-3 3-3 3 1.34 3 3-1.34 3-3 3zm6.37 5.32c-.69 0-1.25-.56-1.25-1.25s.56-1.25 1.25-1.25 1.25.56 1.25 1.25-.56 1.25-1.25 1.25z"/>
  <circle cx="13.13" cy="5.93" r="1.5"/>
  <circle cx="13.13" cy="17.57" r="1.5"/>
</svg>

